<?xml version="1.0" encoding="UTF-8"?>
<svg width="16px" height="16px" viewBox="0 0 16 16" version="1.1" xmlns="http://www.w3.org/2000/svg" xmlns:xlink="http://www.w3.org/1999/xlink">
    <!-- Generator: sketchtool 52.5 (67469) - http://www.bohemiancoding.com/sketch -->
    <title>9207FC5D-1A2E-4E9D-9F9E-20E2A9BABDB5</title>
    <desc>Created with sketchtool.</desc>
    <g id="0.0-Login-+-Onboard" stroke="none" stroke-width="1" fill="none" fill-rule="evenodd">
        <g id="About" transform="translate(-1070.000000, -213.000000)" fill="#969BA0" stroke="#FFFFFF">
            <path d="M1080.17241,220.965517 L1084.7931,225.655172 C1085.06897,225.862069 1085.06897,226.275862 1084.7931,226.482759 L1083.48276,227.793103 C1083.27586,228.068966 1082.86207,228.068966 1082.65517,227.793103 L1077.96552,223.172414 L1073.34483,227.793103 C1073.06897,228.068966 1072.72414,228.068966 1072.51724,227.793103 L1071.2069,226.482759 C1070.93103,226.275862 1070.93103,225.862069 1071.2069,225.655172 L1075.82759,220.965517 L1071.2069,216.344828 C1070.93103,216.068966 1070.93103,215.724138 1071.2069,215.517241 L1072.51724,214.206897 C1072.72414,213.931034 1073.06897,213.931034 1073.34483,214.206897 L1077.96552,218.827586 L1082.65517,214.206897 C1082.86207,213.931034 1083.27586,213.931034 1083.48276,214.206897 L1084.7931,215.517241 C1085.06897,215.724138 1085.06897,216.068966 1084.7931,216.344828 L1080.17241,220.965517 Z" id="Shape"></path>
        </g>
    </g>
</svg>