<?xml version="1.0" encoding="UTF-8" standalone="no"?>
<svg
   xmlns:dc="http://purl.org/dc/elements/1.1/"
   xmlns:cc="http://creativecommons.org/ns#"
   xmlns:rdf="http://www.w3.org/1999/02/22-rdf-syntax-ns#"
   xmlns:svg="http://www.w3.org/2000/svg"
   xmlns="http://www.w3.org/2000/svg"
   id="svg8"
   version="1.1"
   viewBox="0 0 57.943761 20.372929"
   height="77"
   width="219">
  <defs
     id="defs2" />
  <metadata
     id="metadata5">
    <rdf:RDF>
      <cc:Work
         rdf:about="">
        <dc:format>image/svg+xml</dc:format>
        <dc:type
           rdf:resource="http://purl.org/dc/dcmitype/StillImage" />
        <dc:title></dc:title>
      </cc:Work>
    </rdf:RDF>
  </metadata>
  <g
     transform="translate(0,-276.6269)"
     id="layer1">
    <path
       transform="matrix(-0.08615663,0.01188584,0.01471184,0.0696068,50.555678,283.0189)"
       style="fill:none;stroke:#917c6f;stroke-width:3.71920037;stroke-miterlimit:4;stroke-dasharray:none;stroke-opacity:0.21105526"
       d="m 97.820647,137.70735 -17.598842,-6.41001 -17.59884,-6.41002 14.350658,-12.03603 14.350656,-12.03604 3.248184,18.44605 z"
       id="path21-1" />
    <rect
       ry="0.46795106"
       y="290.13876"
       x="42.616661"
       height="4.4455352"
       width="5.4445915"
       id="rect864"
       style="fill:none;stroke:#917c6f;stroke-width:0.29218689;stroke-miterlimit:4;stroke-dasharray:none;stroke-opacity:0.21105526" />
    <rect
       ry="0.79383737"
       y="288.70343"
       x="27.771265"
       height="7.5414553"
       width="7.4620714"
       id="rect864-7"
       style="fill:none;stroke:#917c6f;stroke-width:0.4455263;stroke-miterlimit:4;stroke-dasharray:none;stroke-opacity:0.21105526" />
    <rect
       rx="0"
       ry="0.11907518"
       y="290.88647"
       x="29.755854"
       height="3.5722678"
       width="1.3495235"
       id="rect890"
       style="fill:none;stroke:#917c6f;stroke-width:0.4455263;stroke-miterlimit:4;stroke-dasharray:none;stroke-opacity:0.21105526" />
    <rect
       rx="0"
       ry="0.11907519"
       y="290.78015"
       x="31.702364"
       height="3.5722678"
       width="1.3495235"
       id="rect890-8"
       style="fill:none;stroke:#917c6f;stroke-width:0.4455263;stroke-miterlimit:4;stroke-dasharray:none;stroke-opacity:0.21105526" />
    <rect
       ry="0.11907491"
       y="289.31003"
       x="1.6762224"
       height="5.7156286"
       width="5.5568614"
       id="rect919"
       style="fill:none;stroke:#917c6f;stroke-width:0.4455263;stroke-miterlimit:4;stroke-dasharray:none;stroke-opacity:0.21105528" />
    <rect
       ry="0.11907491"
       y="285.70859"
       x="13.571297"
       height="5.5568614"
       width="1.4289072"
       id="rect921"
       style="fill:none;stroke:#917c6f;stroke-width:0.4455263;stroke-miterlimit:4;stroke-dasharray:none;stroke-opacity:0.21105526" />
    <rect
       ry="0.11907491"
       y="285.72296"
       x="16.192558"
       height="5.5568614"
       width="1.4289072"
       id="rect921-2"
       style="fill:none;stroke:#917c6f;stroke-width:0.4455263;stroke-miterlimit:4;stroke-dasharray:none;stroke-opacity:0.21105526" />
    <path
       transform="matrix(0.11808174,0.02016327,-0.02016327,0.11808174,14.363094,264.39822)"
       style="fill:none;stroke:#917c6f;stroke-width:3.71920037;stroke-miterlimit:4;stroke-dasharray:none;stroke-opacity:0.21105526"
       d="m 97.820647,137.70735 -17.598842,-6.41001 -17.59884,-6.41002 14.350658,-12.03603 14.350656,-12.03604 3.248184,18.44605 z"
       id="path21-1-6" />
    <path
       transform="matrix(0.11808174,0.02016327,-0.02016327,0.11808174,18.335472,264.39663)"
       style="fill:none;stroke:#917c6f;stroke-width:3.71920037;stroke-miterlimit:4;stroke-dasharray:none;stroke-opacity:0.21105526"
       d="m 97.820647,137.70735 -17.598842,-6.41001 -17.59884,-6.41002 14.350658,-12.03603 14.350656,-12.03604 3.248184,18.44605 z"
       id="path21-1-6-5" />
    <path
       transform="matrix(0.11808174,0.02016327,-0.02016327,0.11808174,-1.8318244,265.1534)"
       style="fill:none;stroke:#917c6f;stroke-width:3.71920037;stroke-miterlimit:4;stroke-dasharray:none;stroke-opacity:0.21105528"
       d="m 97.820647,137.70735 -17.598842,-6.41001 -17.59884,-6.41002 14.350658,-12.03603 14.350656,-12.03604 3.248184,18.44605 z"
       id="path21-1-6-4" />
    <rect
       ry="0.11907491"
       y="278.51883"
       x="1.5410753"
       height="5.5568614"
       width="1.4289072"
       id="rect921-4"
       style="fill:none;stroke:#917c6f;stroke-width:0.4455263;stroke-miterlimit:4;stroke-dasharray:none;stroke-opacity:0.21105528" />
    <rect
       ry="0.11907491"
       y="278.3241"
       x="47.62376"
       height="6.5094666"
       width="6.7476177"
       id="rect1027"
       style="fill:none;stroke:#917c6f;stroke-width:0.4455263;stroke-miterlimit:4;stroke-dasharray:none;stroke-opacity:0.21105526" />
    <rect
       ry="0.11907491"
       y="280.14993"
       x="49.211433"
       height="3.0959659"
       width="3.1753495"
       id="rect1029"
       style="fill:none;stroke:#917c6f;stroke-width:0.4455263;stroke-miterlimit:4;stroke-dasharray:none;stroke-opacity:0.21105526" />
    <path
       transform="matrix(-0.11808174,0.02016327,0.02016327,0.11808174,46.01425,267.49139)"
       style="fill:none;stroke:#917c6f;stroke-width:3.71920037;stroke-miterlimit:4;stroke-dasharray:none;stroke-opacity:0.21105526"
       d="m 97.820647,137.70735 -17.598842,-6.41001 -17.59884,-6.41002 14.350658,-12.03603 14.350656,-12.03604 3.248184,18.44605 z"
       id="path21-1-6-4-1" />
    <rect
       transform="scale(-1,1)"
       ry="0.11907491"
       y="280.85684"
       x="-42.641376"
       height="5.5568614"
       width="1.4289072"
       id="rect921-4-4"
       style="fill:none;stroke:#917c6f;stroke-width:0.4455263;stroke-miterlimit:4;stroke-dasharray:none;stroke-opacity:0.21105526" />
  </g>
</svg>
